<svg version="1.1" id="svg259" xmlns="http://www.w3.org/2000/svg" viewBox="0 0 24 24">
  <path style="fill:#eb008c;fill-opacity:1;stroke-width:.133168" d="m20.611 11.6866-7.9755-6.5793a.9984.9984 0 0 0-1.2711 0L3.389 11.6866a.9984.9984 0 0 0-.3633.7704v9.9268c0 .5518.447.9988.9987.9988h15.9508a.9986.9986 0 0 0 .9987-.9988V12.457a.9973.9973 0 0 0-.363-.7704zm-7.555 9.6985h-2.112v-5.5297h2.1119v5.5297zm5.9207 0h-3.9232v-6.5284a.9986.9986 0 0 0-.9987-.9988H9.9452a.9986.9986 0 0 0-.9987.9988v6.5284H5.0233v-8.4573L12 7.1725l6.9767 5.7553Z" id="path315"/>
  <path style="fill:#eb008c;fill-opacity:1;stroke-width:.133168" d="M23.3797 9.683a616.0283 616.0283 0 0 1-6.5999-5.3615c-.6804-.6114-1.3955-1.1903-2.0874-1.7504-.6774-.5484-1.378-1.1155-2.0243-1.6972a.9986.9986 0 0 0-1.3363 0c-.6464.5817-1.3469 1.1488-2.0243 1.6972-.6918.56-1.407 1.139-2.0874 1.7504A613.0895 613.0895 0 0 1 .6203 9.6829c-.4306.3448-.5.9735-.1552 1.4039.3448.4304.9736.5 1.4039.1551a613.214 613.214 0 0 0 6.6377-5.3923.84.84 0 0 0 .0333-.0287c.6464-.5816 1.3469-1.1488 2.0243-1.6972.474-.3835.9587-.776 1.4357-1.1816.477.4056.9619.798 1.4357 1.1816.6774.5484 1.378 1.1156 2.0243 1.6972a.8427.8427 0 0 0 .0333.0287 611.9188 611.9188 0 0 0 6.6377 5.3923.9946.9946 0 0 0 .6238.2192.9966.9966 0 0 0 .78-.3744c.345-.4303.2755-1.059-.155-1.4038z" id="path317"/>
</svg>
