<?xml version="1.0" encoding="UTF-8" standalone="no"?>
<svg
   width="24px"
   height="24px"
   viewBox="0 0 24 24"
   version="1.1"
   id="svg250"
   sodipodi:docname="active_controller.svg"
   inkscape:version="1.2.1 (1:1.2.1+202210291243+9c6d41e410)"
   xmlns:inkscape="http://www.inkscape.org/namespaces/inkscape"
   xmlns:sodipodi="http://sodipodi.sourceforge.net/DTD/sodipodi-0.dtd"
   xmlns="http://www.w3.org/2000/svg"
   xmlns:svg="http://www.w3.org/2000/svg">
  <defs
     id="defs254" />
  <sodipodi:namedview
     id="namedview252"
     pagecolor="#ffffff"
     bordercolor="#000000"
     borderopacity="0.25"
     inkscape:showpageshadow="2"
     inkscape:pageopacity="0.0"
     inkscape:pagecheckerboard="0"
     inkscape:deskcolor="#d1d1d1"
     showgrid="false"
     inkscape:zoom="4.234375"
     inkscape:cx="-54.553506"
     inkscape:cy="10.745387"
     inkscape:window-width="1846"
     inkscape:window-height="1016"
     inkscape:window-x="74"
     inkscape:window-y="27"
     inkscape:window-maximized="1"
     inkscape:current-layer="svg250" />
  <path
     d="m 13.2,20.4 v 2.4 c 0,1.599999 -2.4,1.599999 -2.4,0 V 20.4 H 8.4 v 2.4 c 0,1.599999 -2.4,1.599999 -2.4,0 V 20.4 C 6,20.3316 6.006,20.2656 6.0168,20.2008 4.9783167,19.838112 4.1618881,19.021683 3.7992,17.9832 3.7344,17.9952 3.6672,18 3.6,18 H 1.2 c -1.59999925,0 -1.59999925,-2.4 0,-2.4 H 3.6 V 13.2 H 1.2 c -1.59999925,0 -1.59999925,-2.4 0,-2.4 H 3.6 V 8.4 H 1.2 C -0.39999931,8.4 -0.39999931,6 1.2,6 H 3.6 C 3.6684,6 3.7344,6.006 3.7992,6.0168 4.1592,4.98 4.98,4.1592 6.0168,3.7992 6.0057079,3.733378 6.0000886,3.66675 6,3.6 V 1.2 c 0,-1.59999931 2.4,-1.59999931 2.4,0 v 2.4 h 2.4 V 1.2 c 0,-1.59999936 2.4,-1.59999936 2.4,0 v 2.4 h 2.4 V 1.2 c 0,-1.59999925 2.4,-1.59999925 2.4,0 V 3.6 C 18,3.6672 17.994,3.7344 17.9832,3.7992 19.02,4.1592 19.8408,4.98 20.2008,6.0168 20.2656,6.0048 20.3328,6 20.4,6 h 2.4 c 1.599999,0 1.599999,2.4 0,2.4 h -2.4 v 2.4 h 2.4 c 1.599999,0 1.599999,2.4 0,2.4 h -2.4 v 2.4 h 2.4 c 1.599999,0 1.599999,2.4 0,2.4 h -2.4 c -0.0684,0 -0.1344,-0.006 -0.1992,-0.0168 -0.362688,1.038483 -1.179117,1.854912 -2.2176,2.2176 C 17.9952,20.2656 18,20.3328 18,20.4 v 2.4 c 0,1.599999 -2.4,1.599999 -2.4,0 V 20.4 Z M 7.6,6.4 C 6.9372583,6.4 6.4,6.9372583 6.4,7.6 v 8.8 c 0,0.662742 0.5372583,1.2 1.2,1.2 h 8.8 c 0.662742,0 1.2,-0.537258 1.2,-1.2 V 7.6 c 0,-0.6627417 -0.537258,-1.2 -1.2,-1.2 z"
     id="path306"
     style="fill:#eb008c;fill-opacity:1;stroke-width:1.2"
     sodipodi:nodetypes="cssccsssccsssccssccssscccssccssccsssccsssccssccsssccsssccsssssssss" />
</svg>
