<svg viewBox="0 0 1500.0001 1000" version="1.1" id="svg5" xmlns="http://www.w3.org/2000/svg">
  <g id="floor1">
    <g id="plan">
      <path id="rect7839" style="opacity:1;vector-effect:none;fill:#30308e;fill-rule:evenodd;stroke-width:2.83414;stop-color:#000;stop-opacity:1;fill-opacity:1" d="M35.4323-124.0855v470h50v-100H434.778v-20H85.4323v-300h480v300H494.778v20h160v-20h-69.3457v-300h320v300H714.778v20h260v-20h-49.3457v-300h150.8672v50h20v-50h389.1328v140h-389.1328v-30h-20v100h20v-50h389.1328v140h-389.1328v-30h-20v30h-41.5215v20h41.5215v260H714.778v20h361.5215v130h20v-410h389.1328v580h-389.1328v-110h-20v110H585.4323v-300h69.3457v-20h-160v20h70.6543v300h-480v-300H434.778v-20H85.4323v-100h-50v470h1500v-1000h-1500z" transform="translate(-35.4323 124.0855)"/>
    </g>
    <g id="poligons">
      <path style="fill:#b2b2e6;fill-opacity:1;stroke:none" id="room1" title="Комната №1" d="M50 50h480v300H50z"/>
      <path style="fill:#b2b2e6;fill-opacity:1;stroke:none" id="room2" title="Комната №2" d="M550 50h320v300H550z"/>
      <path style="fill:#b2b2e6;fill-opacity:1;stroke:none" id="room3" title="Комната №3" d="M890 50h150.8672v300H890z"/>
      <path style="fill:#b2b2e6;fill-opacity:1;stroke:none" id="room4" title="Комната №4" d="M1060.8672 50H1450v140h-389.1328z"/>
      <path style="fill:#b2b2e6;fill-opacity:1;stroke:none" id="room6" title="Комната №6" d="M1060.8672 210H1450v140h-389.1328z"/>
      <path style="fill:#b2b2e6;fill-opacity:1;stroke:none" id="room5" title="Серверная" d="M1060.8672 370H1450v580h-389.1328z"/>
      <path style="fill:#b2b2e6;fill-opacity:1;stroke:none" id="room7" title="Комната №7" d="M550 650h490.8672v300H550z"/>
      <path style="fill:#b2b2e6;fill-opacity:1;stroke:none" id="room8" title="Комната №8" d="M50 650h480v300H50z"/>
    </g>
  </g>
</svg>
