<?xml version="1.0" encoding="UTF-8" standalone="no"?>
<svg
   width="32px"
   height="32px"
   viewBox="0 0 32 32"
   version="1.1"
   id="svg11534"
   sodipodi:docname="preloader.svg"
   inkscape:version="1.2.1 (1:1.2.1+202210291243+9c6d41e410)"
   xmlns:inkscape="http://www.inkscape.org/namespaces/inkscape"
   xmlns:sodipodi="http://sodipodi.sourceforge.net/DTD/sodipodi-0.dtd"
   xmlns="http://www.w3.org/2000/svg"
   xmlns:svg="http://www.w3.org/2000/svg">
  <defs
     id="defs11538" />
  <sodipodi:namedview
     id="namedview11536"
     pagecolor="#ffffff"
     bordercolor="#000000"
     borderopacity="0.25"
     inkscape:showpageshadow="2"
     inkscape:pageopacity="0.0"
     inkscape:pagecheckerboard="0"
     inkscape:deskcolor="#d1d1d1"
     showgrid="false"
     inkscape:zoom="18.782524"
     inkscape:cx="16.185258"
     inkscape:cy="15.892433"
     inkscape:window-width="1846"
     inkscape:window-height="1016"
     inkscape:window-x="74"
     inkscape:window-y="27"
     inkscape:window-maximized="1"
     inkscape:current-layer="Layer_39" />
  <title
     id="title11527" />
  <g
     data-name="Layer 39"
     id="Layer_39">
    <path
       d="M21.19,6.52l3.26-1.63a1,1,0,0,0-.9-1.78l-6,3,0,0h0l-.07.07a.93.93,0,0,0-.18.16.76.76,0,0,0-.08.11l-.1.2,0,.14A.82.82,0,0,0,17,7s0,.09,0,.14,0,0,0,.05a.5.5,0,0,0,.09.21.64.64,0,0,0,0,.07l3,5A1,1,0,0,0,21,13a1,1,0,0,0,.51-.14,1,1,0,0,0,.35-1.37L19.91,8.24A8,8,0,0,1,18,24a1,1,0,0,0,0,2A10,10,0,0,0,21.19,6.52Z"
       id="path11529"
       style="fill:#ffffff;fill-opacity:1" />
    <path
       d="M14,8a1,1,0,0,0,0-2,10,10,0,0,0-3.19,19.48L7.55,27.11a1,1,0,0,0-.44,1.34A1,1,0,0,0,8,29a.93.93,0,0,0,.45-.11l6-3s0,0,0,0h0a.46.46,0,0,0,.07-.07.93.93,0,0,0,.18-.16.76.76,0,0,0,.08-.11,1.86,1.86,0,0,0,.1-.2l0-.14A.78.78,0,0,0,15,25a.66.66,0,0,1,0-.14s0,0,0-.05a.78.78,0,0,0-.09-.21.64.64,0,0,0,0-.07l-3-5a1,1,0,0,0-1.72,1l1.95,3.25A8,8,0,0,1,14,8Z"
       id="path11531"
       style="fill:#ffffff;fill-opacity:1" />
  </g>
</svg>
