<?xml version="1.0" encoding="UTF-8" standalone="no"?>
<svg
   width="24px"
   height="24px"
   viewBox="0 0 24 24"
   version="1.1"
   id="svg15561"
   sodipodi:docname="active_gear.svg"
   inkscape:version="1.2.1 (1:1.2.1+202210291243+9c6d41e410)"
   xmlns:inkscape="http://www.inkscape.org/namespaces/inkscape"
   xmlns:sodipodi="http://sodipodi.sourceforge.net/DTD/sodipodi-0.dtd"
   xmlns="http://www.w3.org/2000/svg"
   xmlns:svg="http://www.w3.org/2000/svg">
  <defs
     id="defs15565" />
  <sodipodi:namedview
     id="namedview15563"
     pagecolor="#ffffff"
     bordercolor="#000000"
     borderopacity="0.25"
     inkscape:showpageshadow="2"
     inkscape:pageopacity="0.0"
     inkscape:pagecheckerboard="0"
     inkscape:deskcolor="#d1d1d1"
     showgrid="false"
     inkscape:zoom="32.833333"
     inkscape:cx="12"
     inkscape:cy="12.045685"
     inkscape:window-width="1846"
     inkscape:window-height="1016"
     inkscape:window-x="0"
     inkscape:window-y="0"
     inkscape:window-maximized="1"
     inkscape:current-layer="svg15561" />
  <path
     fill="#EB008C"
     d="M12 17c-2.757 0-5-2.243-5-5s2.243-5 5-5 5 2.243 5 5-2.243 5-5 5zm0-8c-1.654 0-3 1.346-3 3s1.346 3 3 3 3-1.346 3-3-1.346-3-3-3z"
     id="path15557"
     style="fill:#1de9b6;fill-opacity:1" />
  <path
     fill="#EB008C"
     d="M22.59 9.09c-.18-.06-.93-.09-.93-.09-.55 0-1-.45-1-1 0-.28.12-.54.31-.72 0 0 .49-.54.57-.72.4-.75.28-1.71-.35-2.34l-1.41-1.41c-.39-.39-.9-.58-1.41-.58-.32 0-.64.08-.93.23-.18.08-.7.56-.7.56-.18.2-.44.32-.74.32-.55 0-1-.45-1-1V2c0-.21-.03-.41-.09-.59C14.66.59 13.89 0 13 0h-2c-.89 0-1.66.59-1.91 1.41-.06.18-.09.38-.09.59v.34c0 .55-.45 1-1 1-.3 0-.56-.12-.74-.32 0 0-.52-.48-.7-.56-.29-.15-.61-.23-.93-.23-.51 0-1.02.19-1.41.58L2.81 4.22c-.63.63-.75 1.59-.35 2.34.08.18.57.72.57.72.19.18.31.44.31.72 0 .55-.45 1-1 1 0 0-.75.03-.93.09C.59 9.34 0 10.11 0 11v2c0 .89.59 1.66 1.41 1.91.18.06.93.09.93.09.55 0 1 .45 1 1 0 .28-.12.54-.31.72 0 0-.49.54-.57.72-.4.75-.28 1.71.35 2.34l1.41 1.41c.39.39.9.58 1.41.58.32 0 .64-.08.93-.23.18-.08.7-.56.7-.56.18-.2.44-.32.74-.32.55 0 1 .45 1 1V22c0 .21.03.41.09.59.25.82 1.02 1.41 1.91 1.41h2c.89 0 1.66-.59 1.91-1.41.06-.18.09-.38.09-.59v-.34c0-.55.45-1 1-1 .3 0 .56.12.74.32 0 0 .52.48.7.56.29.15.61.23.93.23.51 0 1.02-.19 1.41-.58l1.41-1.41c.63-.63.75-1.59.35-2.34-.08-.18-.57-.72-.57-.72-.19-.18-.31-.44-.31-.72 0-.55.45-1 1-1 0 0 .75-.03.93-.09.82-.25 1.41-1.02 1.41-1.91v-2c0-.89-.59-1.66-1.41-1.91zM22 12.5c0 .27-.21.49-.48.5-1.59.07-2.86 1.39-2.86 3 0 .75.29 1.48.79 2.03.08.09.13.2.13.33 0 .14-.05.25-.13.34l-.73.72c-.09.09-.21.15-.35.15-.13 0-.25-.05-.34-.13-.54-.5-1.27-.78-2.03-.78-1.61 0-2.93 1.28-3.01 2.87-.01.26-.22.47-.49.47h-1c-.27 0-.48-.21-.49-.47-.08-1.59-1.4-2.87-3.01-2.87-.76 0-1.49.28-2.03.78-.09.08-.21.13-.34.13-.14 0-.26-.06-.35-.15l-.73-.72c-.08-.09-.13-.2-.13-.34 0-.13.05-.24.13-.33.5-.55.79-1.28.79-2.03 0-1.61-1.27-2.93-2.86-3-.27-.01-.48-.23-.48-.5v-1c0-.28.22-.5.5-.5 1.58-.08 2.84-1.4 2.84-3 0-.74-.28-1.45-.77-2 0 0-.01-.01-.01-.02-.09-.08-.14-.21-.14-.34 0-.14.06-.27.15-.36l.69-.7h.01c.09-.1.21-.16.36-.16.14 0 .26.06.35.15.55.49 1.27.77 2.02.77 1.6 0 2.91-1.26 3-2.84 0-.28.22-.5.5-.5h1c.28 0 .5.22.5.5.09 1.58 1.4 2.84 3 2.84.75 0 1.47-.28 2.02-.77.09-.09.21-.15.35-.15.15 0 .27.06.36.16h.01l.69.7c.09.09.15.22.15.36 0 .13-.05.26-.14.34 0 .01-.01.02-.01.02-.49.55-.77 1.26-.77 2 0 1.6 1.26 2.92 2.84 3 .28 0 .5.22.5.5v1z"
     id="path15559"
     style="fill:#1de9b6;fill-opacity:1" />
</svg>
