<svg version="1.1" id="svg259" xmlns="http://www.w3.org/2000/svg" viewBox="0 0 24 24">
  <g id="g319" transform="matrix(.13317 0 0 .13317 .2458 .2459)" style="fill:#a9a9a9;fill-opacity:1">
    <path style="fill:#a9a9a9;fill-opacity:1" d="m152.928 85.912-59.89-49.406c-2.771-2.287-6.773-2.287-9.545 0l-59.89 49.406a7.497 7.497 0 0 0-2.728 5.785v74.544c0 4.143 3.357 7.5 7.5 7.5h119.779c4.143 0 7.5-3.357 7.5-7.5V91.697a7.4887 7.4887 0 0 0-2.726-5.785zm-56.732 72.829h-15.86v-41.524h15.859v41.524zm44.46 0h-29.46v-49.024c0-4.143-3.357-7.5-7.5-7.5h-30.86c-4.143 0-7.5 3.357-7.5 7.5v49.024h-29.46V95.233l52.39-43.219 52.39 43.219z" id="path315"/>
    <path style="fill:#a9a9a9;fill-opacity:1" d="M173.72 70.866c-16.706-13.382-32.458-26.178-49.561-40.261-5.109-4.591-10.479-8.938-15.675-13.144-5.087-4.118-10.348-8.377-15.201-12.745-2.854-2.568-7.182-2.568-10.035 0-4.854 4.368-10.114 8.627-15.201 12.745-5.195 4.205-10.565 8.553-15.675 13.144C35.27 44.689 19.518 57.484 2.812 70.866c-3.233 2.589-3.755 7.31-1.165 10.542 2.589 3.232 7.311 3.755 10.542 1.165 16.802-13.457 32.64-26.324 49.845-40.493.085-.069.168-.141.25-.215 4.854-4.368 10.114-8.627 15.201-12.745 3.559-2.88 7.199-5.827 10.781-8.873 3.582 3.046 7.223 5.993 10.781 8.873 5.087 4.118 10.348 8.377 15.201 12.745.082.074.165.146.25.215 17.204 14.169 33.043 27.036 49.845 40.493 1.384 1.108 3.039 1.646 4.684 1.646 2.198 0 4.377-.962 5.858-2.812 2.59-3.231 2.068-7.952-1.165-10.541z" id="path317"/>
  </g>
</svg>
