<?xml version="1.0" encoding="UTF-8" standalone="no"?>
<svg
   width="233.96066"
   height="70.348969"
   viewBox="0 0 233.96066 70.348969"
   fill="none"
   version="1.1"
   id="svg22057"
   sodipodi:docname="logo.svg"
   inkscape:version="1.2.1 (1:1.2.1+202210291243+9c6d41e410)"
   xmlns:inkscape="http://www.inkscape.org/namespaces/inkscape"
   xmlns:sodipodi="http://sodipodi.sourceforge.net/DTD/sodipodi-0.dtd"
   xmlns:xlink="http://www.w3.org/1999/xlink"
   xmlns="http://www.w3.org/2000/svg"
   xmlns:svg="http://www.w3.org/2000/svg">
  <defs
     id="defs22061">
    <linearGradient
       inkscape:collect="always"
       id="linearGradient28172">
      <stop
         style="stop-color:#f3f4f6;stop-opacity:1;"
         offset="0"
         id="stop28168" />
      <stop
         style="stop-color:#1de9b6;stop-opacity:1;"
         offset="1"
         id="stop28170" />
    </linearGradient>
    <linearGradient
       inkscape:collect="always"
       id="linearGradient28097">
      <stop
         style="stop-color:#f3f4f6;stop-opacity:1;"
         offset="0"
         id="stop28091" />
      <stop
         style="stop-color:#1de9b6;stop-opacity:1;"
         offset="1"
         id="stop28095" />
    </linearGradient>
    <linearGradient
       inkscape:collect="always"
       id="linearGradient26520">
      <stop
         style="stop-color:#1de9b6;stop-opacity:0.70763761;"
         offset="0"
         id="stop26516" />
      <stop
         style="stop-color:#1de9b6;stop-opacity:0.2;"
         offset="0.60953778"
         id="stop29745" />
      <stop
         style="stop-color:#1de9b6;stop-opacity:0;"
         offset="1"
         id="stop26518" />
    </linearGradient>
    <radialGradient
       inkscape:collect="always"
       xlink:href="#linearGradient26520"
       id="radialGradient26522"
       cx="-21.487783"
       cy="-71.651421"
       fx="-21.487783"
       fy="-71.651421"
       r="87.730095"
       gradientTransform="matrix(0,-0.20348335,0.97153857,-7.286778e-6,157.45527,40.397714)"
       gradientUnits="userSpaceOnUse" />
    <linearGradient
       inkscape:collect="always"
       xlink:href="#linearGradient28097"
       id="linearGradient28089"
       x1="-80.247726"
       y1="-67.255798"
       x2="-80.039803"
       y2="-41.343647"
       gradientUnits="userSpaceOnUse"
       gradientTransform="translate(158.40443,103.30803)" />
    <linearGradient
       inkscape:collect="always"
       xlink:href="#linearGradient28172"
       id="linearGradient28174"
       x1="-44.014507"
       y1="-62.786297"
       x2="-57.207691"
       y2="-47.414154"
       gradientUnits="userSpaceOnUse"
       gradientTransform="translate(158.40443,103.30803)" />
  </defs>
  <sodipodi:namedview
     id="namedview22059"
     pagecolor="#ffffff"
     bordercolor="#000000"
     borderopacity="0.25"
     inkscape:showpageshadow="2"
     inkscape:pageopacity="0.0"
     inkscape:pagecheckerboard="0"
     inkscape:deskcolor="#d1d1d1"
     showgrid="false"
     inkscape:zoom="1.451042"
     inkscape:cx="86.834148"
     inkscape:cy="-58.923172"
     inkscape:window-width="1846"
     inkscape:window-height="1016"
     inkscape:window-x="0"
     inkscape:window-y="0"
     inkscape:window-maximized="1"
     inkscape:current-layer="svg22057" />
  <ellipse
     style="opacity:1;fill:url(#radialGradient26522);fill-opacity:1;stroke:none;stroke-width:3"
     id="path26454"
     cx="87.730095"
     cy="44.370197"
     rx="87.730095"
     ry="25.978771" />
  <path
     d="m 56.609034,23.791797 c -0.0139,-0.8465 -0.1075,-1.7037 -0.2865,-2.5632 -1.5444,-7.4164 -8.8627,-12.1877599 -16.3459,-10.6571 l -2.0973,-10.07145897 c 9.2841,-1.89896993 18.4232,1.74506007 23.919702,8.65172907 4.4337,-5.57088 11.3057,-9.14700907 19.0206,-9.14700907 6.6858,0 12.7387,2.68575007 17.120098,7.02803907 l -7.337198,7.2716999 c -2.5037,-2.4814 -5.9624,-4.0161 -9.7829,-4.0161 -7.5466,0 -13.6819,5.9882 -13.8323,13.4317 0.0025,0.193 0.0026,0.3857 4e-4,0.5781 0.16,7.435 6.2915,13.4133 13.8319,13.4133 3.8205,0 7.2792,-1.5347 9.7829,-4.016 l 7.337198,7.2717 c -4.381398,4.3422 -10.434298,7.028 -17.120098,7.028 -7.7166,0 -14.5901,-3.5777 -19.0236,-9.1508 -3.408402,4.2946 -8.307302,7.4647 -14.129402,8.6556 -13.0956,2.6785 -25.90269,-5.6713 -28.6054,-18.65 l 10.1622,-2.0786 c 1.5444,7.4164 8.8627,12.1878 16.346,10.6572 6.4672,-1.3229 10.941,-6.9196 11.0398,-13.2022 -7e-4,-0.0754 -10e-4,-0.1509 -10e-4,-0.2264 0,-0.0695 3e-4,-0.1389 9e-4,-0.2082 z"
     fill="#f3f4f6"
     id="path22053"
     style="fill:url(#linearGradient28089);fill-opacity:1" />
  <path
     d="m 18.939734,19.775797 c 0.11492,-0.6368 0.2555,-1.2673 0.42108,-1.8901 0.7469,-2.8091 2.00247,-5.4608 3.70533,-7.8254 0.3775,-0.5241699 0.77699,-1.0342599 1.19779,-1.5288199 l 7.9376,6.6336199 c -1.5645,1.8387 -2.6132,4.0532 -3.0407,6.4208 l -2e-4,0.0014 z"
     fill="#f3f4f6"
     id="path22055" />
  <path
     d="m 116.06475,22.145828 q -3.66667,0 -5.68751,2.708336 -2.02083,2.708335 -2.02083,7.625005 0,4.895837 2.02083,7.604173 2.02084,2.708335 5.68751,2.708335 3.6875,0 5.70833,-2.708335 2.02084,-2.708336 2.02084,-7.604173 0,-4.91667 -2.02084,-7.625005 -2.02083,-2.708336 -5.70833,-2.708336 z m 0,-5.812504 q 7.5,0 11.75,4.29167 4.25001,4.29167 4.25001,11.854175 0,7.541672 -4.25001,11.833342 -4.25,4.29167 -11.75,4.29167 -7.47918,0 -11.75001,-4.29167 -4.25001,-4.29167 -4.25001,-11.833342 0,-7.562505 4.25001,-11.854175 4.27083,-4.29167 11.75001,-4.29167 z"
     style="font-weight:bold;font-size:42.6667px;-inkscape-font-specification:'sans-serif Bold';fill:url(#linearGradient28174);fill-opacity:1;stroke-width:3"
     id="path28068" />
  <path
     d="m 153.1481,15.583323 v 4.895837 h -4.125 q -1.58333,0 -2.20833,0.562501 -0.625,0.583333 -0.625,2.000001 v 1.625001 h 8.54167 v -1.625001 q 0,-3.812503 2.125,-5.625004 2.125,-1.833335 6.58334,-1.833335 h 5.70834 v 4.895837 h -4.12501 q -1.5625,0 -2.16667,0.562501 -0.60416,0.583333 -0.60416,2.000001 v 1.625001 h 15.95834 v 23.333351 h -7.52084 V 30.000001 h -8.4375 v 18.000013 h -0.0625 -7.45834 V 30.000001 h -8.54167 v 18.000013 h -7.45834 V 30.000001 h -3.70834 v -5.333338 h 3.70834 v -1.625001 q 0,-3.812503 2.125,-5.625004 2.125,-1.833335 6.58334,-1.833335 z m 17.54168,0 h 7.52084 v 6.083338 h -7.52084 z"
     style="font-weight:bold;font-size:42.6667px;-inkscape-font-specification:'sans-serif Bold';fill:#f3f4f6;stroke-width:3"
     id="path28070" />
  <path
     d="m 204.23148,25.395831 v 6.083337 q -1.52083,-1.041667 -3.0625,-1.541667 -1.52084,-0.500001 -3.16667,-0.500001 -3.125,0 -4.875,1.833335 -1.72917,1.812501 -1.72917,5.083337 0,3.270836 1.72917,5.104171 1.75,1.812501 4.875,1.812501 1.75,0 3.3125,-0.520834 1.58334,-0.520834 2.91667,-1.541668 v 6.104172 q -1.75,0.645833 -3.5625,0.958334 -1.79167,0.333333 -3.60417,0.333333 -6.31251,0 -9.87501,-3.229169 -3.5625,-3.250002 -3.5625,-9.02084 0,-5.770838 3.5625,-9.000007 3.5625,-3.250002 9.87501,-3.250002 1.83333,0 3.60417,0.333334 1.79167,0.3125 3.5625,0.958334 z"
     style="font-weight:bold;font-size:42.6667px;-inkscape-font-specification:'sans-serif Bold';fill:#f3f4f6;stroke-width:3"
     id="path28072" />
  <path
     d="m 233.96066,36.270839 v 2.125001 h -17.43751 q 0.27083,2.625002 1.89584,3.937503 1.625,1.312501 4.54167,1.312501 2.35416,0 4.8125,-0.6875 2.47917,-0.708334 5.08334,-2.125002 v 5.750004 q -2.64584,1.000001 -5.29167,1.500001 -2.64584,0.520834 -5.29167,0.520834 -6.33334,0 -9.85418,-3.208336 -3.5,-3.229169 -3.5,-9.041673 0,-5.708338 3.4375,-8.979173 3.45834,-3.270836 9.50001,-3.270836 5.5,0 8.79167,3.312502 3.3125,3.312503 3.3125,8.854174 z m -7.66667,-2.479169 q 0,-2.125001 -1.25,-3.416669 -1.22917,-1.312501 -3.22917,-1.312501 -2.16667,0 -3.52083,1.229168 -1.35417,1.208334 -1.68751,3.500002 z"
     style="font-weight:bold;font-size:42.6667px;-inkscape-font-specification:'sans-serif Bold';fill:#f3f4f6;stroke-width:3"
     id="path28074" />
</svg>
