<?xml version="1.0" encoding="UTF-8" standalone="no"?>
<svg
   width="180.078"
   height="47.9995"
   viewBox="0 0 180.078 47.999501"
   fill="none"
   version="1.1"
   id="svg22057"
   sodipodi:docname="logo.svg"
   inkscape:version="1.2.1 (1:1.2.1+202210291243+9c6d41e410)"
   xmlns:inkscape="http://www.inkscape.org/namespaces/inkscape"
   xmlns:sodipodi="http://sodipodi.sourceforge.net/DTD/sodipodi-0.dtd"
   xmlns:xlink="http://www.w3.org/1999/xlink"
   xmlns="http://www.w3.org/2000/svg"
   xmlns:svg="http://www.w3.org/2000/svg">
  <defs
     id="defs22061">
    <linearGradient
       inkscape:collect="always"
       id="linearGradient58355">
      <stop
         style="stop-color:#f3f4f6;stop-opacity:1;"
         offset="0.76615453"
         id="stop58351" />
      <stop
         style="stop-color:#1de9b6;stop-opacity:1;"
         offset="1"
         id="stop58353" />
    </linearGradient>
    <radialGradient
       inkscape:collect="always"
       xlink:href="#linearGradient58355"
       id="radialGradient58357"
       cx="190.87633"
       cy="45.484715"
       fx="190.87633"
       fy="45.484715"
       r="12.52148"
       gradientTransform="matrix(1.0473223,1.3341822,-0.83594263,0.65620751,3.3376558,-265.00884)"
       gradientUnits="userSpaceOnUse" />
    <radialGradient
       inkscape:collect="always"
       xlink:href="#linearGradient58355"
       id="radialGradient59229"
       cx="178.49074"
       cy="75.160988"
       fx="178.49074"
       fy="75.160988"
       r="10.30176"
       gradientTransform="matrix(-0.94208536,1.3041225,-1.7670912,-1.2765462,445.0207,-116.89655)"
       gradientUnits="userSpaceOnUse" />
  </defs>
  <sodipodi:namedview
     id="namedview22059"
     pagecolor="#ffffff"
     bordercolor="#000000"
     borderopacity="0.25"
     inkscape:showpageshadow="2"
     inkscape:pageopacity="0.0"
     inkscape:pagecheckerboard="0"
     inkscape:deskcolor="#d1d1d1"
     showgrid="false"
     inkscape:zoom="2.0520833"
     inkscape:cx="83.329952"
     inkscape:cy="15.837564"
     inkscape:window-width="1846"
     inkscape:window-height="1016"
     inkscape:window-x="0"
     inkscape:window-y="0"
     inkscape:window-maximized="1"
     inkscape:current-layer="svg22057" />
  <path
     style="fill:url(#radialGradient58357);fill-opacity:1;stroke-width:0.773121"
     d="m 170.71901,17.818591 c -3.11396,0 -5.56218,0.84342 -7.34465,2.529254 -1.77174,1.685832 -2.6576,3.999325 -2.6576,6.94148 0,2.995843 0.90197,5.326952 2.70592,6.99131 1.81469,1.65362 4.35518,2.479424 7.61947,2.479424 1.3637,0 2.72689,-0.133216 4.09059,-0.401661 1.3637,-0.257707 2.7269,-0.644268 4.0906,-1.159682 v -4.445447 c -1.34223,0.730171 -2.65123,1.277798 -3.92903,1.642883 -1.26706,0.354347 -2.50728,0.531521 -3.72064,0.531521 -1.50329,0 -2.67472,-0.338241 -3.51226,-1.014722 -0.83756,-0.67648 -1.32512,-1.691202 -1.46471,-3.044164 h 13.4813 v -1.642883 c 0,-2.856252 -0.85365,-5.13904 -2.56097,-6.846349 -1.69656,-1.707309 -3.96325,-2.560964 -6.79802,-2.560964 z m -0.0317,3.833895 c 1.03083,0 1.86251,0.338241 2.49604,1.014722 0.64427,0.665743 0.9664,1.54574 0.9664,2.640994 h -7.48961 c 0.1718,-1.181157 0.60668,-2.083132 1.30464,-2.705924 0.69795,-0.63353 1.6058,-0.949792 2.72253,-0.949792 z"
     id="path57623" />
  <path
     style="fill:url(#radialGradient59229);fill-opacity:1;stroke-width:0.773121"
     d="m 151.55255,17.818591 c -3.25356,0 -5.79841,0.837549 -7.63457,2.512644 -1.83616,1.664357 -2.75425,3.983721 -2.75425,6.95809 0,2.974368 0.91809,5.299605 2.75425,6.9747 1.83616,1.664357 4.38101,2.496034 7.63457,2.496034 0.93419,0 1.8625,-0.0849 2.78596,-0.256701 0.93418,-0.161067 1.85226,-0.40854 2.75424,-0.741411 V 31.04319 c -0.68722,0.526152 -1.43836,0.922947 -2.25444,1.191392 -0.80533,0.268445 -1.65898,0.40317 -2.56096,0.40317 -1.61067,0 -2.86699,-0.467094 -3.76896,-1.401282 -0.89124,-0.944925 -1.33636,-2.261312 -1.33636,-3.947145 0,-1.685834 0.44512,-2.994839 1.33636,-3.929026 0.90197,-0.944926 2.15829,-1.417892 3.76896,-1.417892 0.84829,0 1.66385,0.128853 2.44772,0.38656 0.79459,0.257707 1.58382,0.654503 2.36768,1.191392 v -4.702147 c -0.91271,-0.332871 -1.8308,-0.580344 -2.75424,-0.741411 -0.91272,-0.171804 -1.84104,-0.25821 -2.78596,-0.25821 z"
     id="path57621" />
  <path
     style="fill:#f3f4f6;fill-opacity:1;stroke-width:0.773121"
     d="m 88.929741,11.811802 c -3.854871,0 -6.88293,1.10549 -9.084173,3.317475 -2.190513,2.211985 -3.285765,5.266386 -3.285765,9.164204 0,3.887079 1.095252,6.937118 3.285765,9.149103 2.201243,2.211984 5.229302,3.317475 9.084173,3.317475 3.865606,0 6.893663,-1.105491 9.08417,-3.317475 2.190519,-2.211985 3.285769,-5.262024 3.285769,-9.149103 0,-3.897818 -1.09525,-6.952219 -3.285769,-9.164204 -2.190507,-2.211985 -5.218564,-3.317475 -9.08417,-3.317475 z m 0,4.493766 c 1.90059,0 3.372177,0.696951 4.413733,2.092864 1.041569,1.395912 1.561346,3.36093 1.561346,5.895049 0,2.52338 -0.519777,4.484035 -1.561346,5.879948 -1.041556,1.395912 -2.513143,2.092863 -4.413733,2.092863 -1.889851,0 -3.355558,-0.696951 -4.397126,-2.092863 -1.041564,-1.395913 -1.562852,-3.356568 -1.562852,-5.879948 0,-2.534119 0.521288,-4.499137 1.562852,-5.895049 1.041568,-1.395913 2.507275,-2.092864 4.397126,-2.092864 z"
     id="path57619" />
  <path
     style="fill:#f3f4f6;fill-opacity:1;stroke-width:0.773121"
     d="m 131.16148,11.231961 v 4.702147 h 5.81502 v -4.702147 z"
     id="path57617" />
  <path
     style="fill:#f3f4f6;fill-opacity:1;stroke-width:0.773121"
     d="m 113.18641,11.231961 c -2.29788,0 -3.99496,0.471457 -5.09021,1.416383 -1.09526,0.934187 -1.64288,2.38379 -1.64288,4.348806 v 1.256322 h -2.86599 v 4.123816 h 2.86599 v 13.91618 h 5.76669 v -13.91618 h 6.60325 v 13.91618 h 5.76669 0.0483 v -13.91618 h 6.52321 v 13.91618 h 5.81502 V 18.253472 H 124.63825 V 16.99715 c 0,-0.73017 0.1552,-1.245585 0.46659,-1.546242 0.3114,-0.289921 0.87077,-0.434881 1.6761,-0.434881 h 3.18913 v -3.784066 h -4.41374 c -2.29788,0 -3.99496,0.471457 -5.09021,1.416383 -1.09526,0.934187 -1.64288,2.38379 -1.64288,4.348806 v 1.256322 h -6.60325 V 16.99715 c 0,-0.73017 0.16107,-1.245585 0.4832,-1.546242 0.32214,-0.289921 0.89174,-0.434881 1.70781,-0.434881 h 3.18913 v -3.784066 z"
     id="path57615" />
  <path
     style="fill:#f3f4f6;fill-opacity:1"
     d="M 5.3242188,8.5307501 C 4.9034192,9.0253096 4.5044527,9.5358776 4.1269531,10.060047 2.4240948,12.424645 1.1687743,15.075168 0.421875,17.884266 0.25629517,18.507065 0.11491989,19.138091 0,19.774891 l 10.220703,1.8125 v -0.002 c 0.4275,-2.367598 1.476517,-4.581224 3.041016,-6.419922 z"
     id="path57613" />
  <path
     style="fill:#f3f4f6;fill-opacity:1"
     d="M 24.123047,0.00145324 C 22.415531,-0.01720039 20.68022,0.14344361 18.939453,0.49950011 L 21.037109,10.571766 c 7.483193,-1.5306586 14.801305,3.239857 16.345703,10.65625 0.179,0.859499 0.27321,1.716 0.28711,2.5625 -6e-4,0.0693 -0.002,0.139484 -0.002,0.208984 0,0.0755 0.0013,0.151163 0.002,0.226562 -0.0988,6.282594 -4.573822,11.878274 -11.041016,13.201172 -7.483292,1.530599 -14.801304,-3.239857 -16.345703,-10.65625 L 0.12109375,28.849109 C 2.823801,41.827796 15.630976,50.177997 28.726562,47.4995 c 5.822095,-1.190899 10.720508,-4.361654 14.128907,-8.65625 4.433495,5.573094 11.308798,9.152344 19.02539,9.152344 6.685794,0 12.737747,-2.687101 17.119141,-7.029297 l -7.337891,-7.271485 c -2.503697,2.481298 -5.960753,4.015626 -9.78125,4.015626 -7.540392,0 -13.672031,-5.977117 -13.832031,-13.41211 0.0022,-0.1924 5.47e-4,-0.385125 -0.002,-0.578125 0.1504,-7.443492 6.287392,-13.431641 13.833984,-13.431641 3.820497,10e-7 7.277553,1.534228 9.78125,4.015626 L 79,7.0327032 C 74.618606,2.6904186 68.566653,0.00340636 61.880859,0.00340636 c -7.714892,0 -14.587788,3.57756304 -19.021484,9.14843754 C 38.393472,3.5401809 31.522284,0.08228562 24.123047,0.00145324 Z"
     id="path22053" />
</svg>
