<?xml version="1.0" encoding="UTF-8" standalone="no"?><svg xmlns="http://www.w3.org/2000/svg" xmlns:xlink="http://www.w3.org/1999/xlink" fill="none" id="svg22057" version="1.1" viewBox="0 0 180.078 47.9995">
  <defs id="defs22061">
    <radialGradient cx="190.8763" cy="45.4847" fx="190.8763" fy="45.4847" gradientTransform="matrix(1.04732 1.33418 -.83594 .6562 3.3377 -265.0088)" gradientUnits="userSpaceOnUse" id="radialGradient58357" r="12.5215" xlink:href="#linearGradient58355"><stop id="stop58351" offset=".7662" style="stop-color:#f3f4f6;stop-opacity:1"/><stop id="stop58353" offset="1" style="stop-color:#1de9b6;stop-opacity:1"/></radialGradient>
    <radialGradient cx="178.4907" cy="75.161" fx="178.4907" fy="75.161" gradientTransform="matrix(-.94209 1.30412 -1.7671 -1.27655 445.0207 -116.8966)" gradientUnits="userSpaceOnUse" id="radialGradient59229" r="10.3018" xlink:href="#linearGradient58355"><stop id="stop58351" offset=".7662" style="stop-color:#f3f4f6;stop-opacity:1"/><stop id="stop58353" offset="1" style="stop-color:#1de9b6;stop-opacity:1"/></radialGradient>
    <linearGradient id="linearGradient58355">
      <stop id="stop58351" offset=".7662" style="stop-color:#f3f4f6;stop-opacity:1"/>
      <stop id="stop58353" offset="1" style="stop-color:#1de9b6;stop-opacity:1"/>
    </linearGradient>
  </defs>
  <path d="M170.719 17.8186c-3.114 0-5.5622.8434-7.3446 2.5292-1.7718 1.6859-2.6576 3.9994-2.6576 6.9415 0 2.9959.902 5.327 2.7059 6.9913 1.8147 1.6537 4.3552 2.4795 7.6194 2.4795 1.3637 0 2.727-.1333 4.0906-.4017 1.3637-.2577 2.727-.6443 4.0906-1.1597v-4.4454c-1.3422.7301-2.6512 1.2778-3.929 1.6429-1.267.3543-2.5073.5315-3.7206.5315-1.5033 0-2.6748-.3383-3.5123-1.0147-.8376-.6765-1.3251-1.6913-1.4647-3.0442h13.4813v-1.6429c0-2.8562-.8537-5.139-2.561-6.8463-1.6965-1.7074-3.9632-2.561-6.798-2.561zm-.0317 3.8339c1.0308 0 1.8625.3382 2.496 1.0147.6443.6658.9664 1.5457.9664 2.641h-7.4896c.1718-1.1812.6067-2.0831 1.3047-2.706.698-.6335 1.6058-.9497 2.7225-.9497z" id="path57623" style="fill:url(#radialGradient58357);fill-opacity:1;stroke-width:.773121"/>
  <path d="M151.5525 17.8186c-3.2535 0-5.7984.8375-7.6345 2.5126-1.8362 1.6644-2.7543 3.9838-2.7543 6.9581 0 2.9744.9181 5.2996 2.7543 6.9747 1.8361 1.6644 4.381 2.496 7.6345 2.496.9342 0 1.8625-.0848 2.786-.2566a15.5938 15.5938 0 0 0 2.7542-.7415v-4.7187c-.6872.5261-1.4383.923-2.2544 1.1914-.8053.2684-1.659.4032-2.561.4032-1.6106 0-2.867-.4671-3.769-1.4013-.8911-.945-1.3363-2.2613-1.3363-3.9472 0-1.6858.4452-2.9948 1.3364-3.929.902-.945 2.1583-1.4179 3.769-1.4179.8482 0 1.6638.1289 2.4477.3866.7946.2577 1.5838.6545 2.3677 1.1914v-4.7022c-.9128-.3329-1.8308-.5803-2.7543-.7414a15.0253 15.0253 0 0 0-2.786-.2582z" id="path57621" style="fill:url(#radialGradient59229);fill-opacity:1;stroke-width:.773121"/>
  <path d="M88.9297 11.8118c-3.8548 0-6.8829 1.1055-9.0841 3.3175-2.1905 2.212-3.2858 5.2664-3.2858 9.1642 0 3.887 1.0953 6.9371 3.2858 9.149 2.2012 2.212 5.2293 3.3176 9.0841 3.3176 3.8656 0 6.8937-1.1055 9.0842-3.3175 2.1905-2.212 3.2858-5.262 3.2858-9.1491 0-3.8978-1.0953-6.9522-3.2858-9.1642-2.1905-2.212-5.2186-3.3175-9.0842-3.3175zm0 4.4938c1.9006 0 3.3722.697 4.4138 2.0928 1.0415 1.396 1.5613 3.361 1.5613 5.895 0 2.5235-.5198 4.4841-1.5613 5.88-1.0416 1.396-2.5132 2.0929-4.4138 2.0929-1.8898 0-3.3555-.697-4.397-2.0929-1.0416-1.3959-1.563-3.3565-1.563-5.88 0-2.534.5214-4.499 1.563-5.895 1.0415-1.3959 2.5072-2.0928 4.397-2.0928z" id="path57619" style="fill:#f3f4f6;fill-opacity:1;stroke-width:.773121"/>
  <path d="M131.1615 11.232v4.7021h5.815V11.232z" id="path57617" style="fill:#f3f4f6;fill-opacity:1;stroke-width:.773121"/>
  <path d="M113.1864 11.232c-2.2979 0-3.995.4714-5.0902 1.4163-1.0953.9342-1.6429 2.3838-1.6429 4.3488v1.2564h-2.866v4.1238h2.866v13.9162h5.7667V22.3773h6.6033v13.9162H124.6382V22.3773h6.5233v13.9162h5.815v-18.04h-12.3382v-1.2563c0-.7302.1551-1.2456.4665-1.5463.3114-.29.8708-.4349 1.6761-.4349h3.1892v-3.784h-4.4138c-2.2979 0-3.995.4714-5.0902 1.4163-1.0952.9342-1.6429 2.3838-1.6429 4.3489v1.2563H112.22v-1.2563c0-.7302.161-1.2456.4832-1.5463.3221-.29.8917-.4349 1.7078-.4349h3.1891v-3.784z" id="path57615" style="fill:#f3f4f6;fill-opacity:1;stroke-width:.773121"/>
  <path d="M5.3242 8.5308A24.0301 24.0301 0 0 0 4.127 10.06 23.8948 23.8948 0 0 0 0 19.775l10.2207 1.8125v-.002c.4275-2.3676 1.4765-4.5812 3.041-6.42z" id="path57613" style="fill:#f3f4f6;fill-opacity:1"/>
  <path d="M24.123.0015a24.5097 24.5097 0 0 0-5.1835.498l2.0976 10.0723c7.4832-1.5307 14.8013 3.2398 16.3457 10.6562.179.8595.2732 1.716.2871 2.5625-.0006.0693-.002.1395-.002.209 0 .0755.0013.1512.002.2266-.0988 6.2826-4.5738 11.8782-11.041 13.2011-7.4833 1.5306-14.8013-3.2398-16.3457-10.6562L.1211 28.849C2.8238 41.8278 15.631 50.178 28.7266 47.4995c5.822-1.1909 10.7205-4.3617 14.1289-8.6563 4.4335 5.5731 11.3088 9.1524 19.0254 9.1524 6.6858 0 12.7377-2.6871 17.1191-7.0293l-7.3379-7.2715c-2.5037 2.4813-5.9607 4.0156-9.7812 4.0156-7.5404 0-13.672-5.977-13.832-13.412a23.481 23.481 0 0 0-.002-.5782c.1503-7.4435 6.2873-13.4316 13.834-13.4316 3.8204 0 7.2775 1.5342 9.7812 4.0156L79 7.0327C74.6186 2.6904 68.5667.0034 61.8809.0034c-7.715 0-14.5878 3.5776-19.0215 9.1484C38.3934 3.5402 31.5223.0823 24.123.0015Z" id="path22053" style="fill:#f3f4f6;fill-opacity:1"/>
</svg>