<svg width="408" height="161" viewBox="0 0 408 161" fill="none" xmlns="http://www.w3.org/2000/svg">
<g clip-path="url(#clip0_1_2)">
<path d="M117.89 144.59H130.64C134.04 144.59 135.74 143.16 135.74 140.3C135.74 137.6 134.04 136.24 130.64 136.24H117.89V144.59ZM128.78 114.91H117.89V123H128.78C132.18 123 133.89 121.69 133.89 119C133.89 116.31 132.18 114.83 128.78 114.83M144.9 129.21C147.33 130.399 149.36 132.273 150.741 134.6C152.121 136.927 152.792 139.607 152.67 142.31C152.76 144.582 152.338 146.844 151.434 148.93C150.531 151.016 149.169 152.872 147.45 154.36C143.97 157.453 139.153 159 133 159H101.7V101H130.7C136.88 101 141.71 102.507 145.19 105.52C146.909 107.01 148.27 108.868 149.174 110.955C150.077 113.043 150.5 115.307 150.41 117.58C150.41 122.68 148.593 126.583 144.96 129.29" fill="#fff"/>
<path d="M172.86 130C172.792 131.817 173.095 133.629 173.752 135.324C174.409 137.02 175.405 138.563 176.68 139.86C179.237 142.307 182.64 143.673 186.18 143.673C189.72 143.673 193.123 142.307 195.68 139.86C198.144 137.17 199.511 133.654 199.511 130.005C199.511 126.356 198.144 122.84 195.68 120.15C193.126 117.696 189.722 116.325 186.18 116.325C182.638 116.325 179.234 117.696 176.68 120.15C175.406 121.445 174.41 122.987 173.753 124.681C173.096 126.374 172.792 128.185 172.86 130M208 151.78C203.705 156.11 198.218 159.064 192.239 160.265C186.259 161.466 180.058 160.859 174.424 158.524C168.79 156.188 163.979 152.228 160.603 147.148C157.228 142.068 155.441 136.099 155.47 130C155.506 123.93 157.334 118.006 160.725 112.971C164.115 107.936 168.916 104.015 174.527 101.698C180.137 99.3815 186.307 98.7731 192.262 99.9494C198.217 101.126 203.692 104.034 208 108.31C213.72 114.098 216.928 121.907 216.928 130.045C216.928 138.183 213.72 145.992 208 151.78Z" fill="#fff"/>
<path d="M227.73 101H275V159H257.64V117.7H245.12V135C245.12 143.813 242.937 150.267 238.57 154.36C234.203 158.453 227.81 160 219.39 159V142.74C222.09 143.507 224.157 143.117 225.59 141.57C227.023 140.023 227.737 137.437 227.73 133.81V101Z" fill="#fff"/>
<path d="M320.89 101V121.87H301.18V101H283.79V158.97H301.18V138.1H320.89V158.97H338.28V101H320.89Z" fill="#fff"/>
<path d="M362.53 130C362.53 134.333 363.803 137.773 366.35 140.32C369.085 142.786 372.637 144.151 376.32 144.151C380.003 144.151 383.555 142.786 386.29 140.32C388.837 137.767 390.113 134.327 390.12 130C390.127 125.673 388.85 122.233 386.29 119.68C383.552 117.22 380.001 115.86 376.32 115.86C372.639 115.86 369.088 117.22 366.35 119.68C363.797 122.24 362.523 125.68 362.53 130ZM390.12 106.47V101H407.5V159H390.12V153.56C386.12 158.267 380.36 160.623 372.84 160.63C369.132 160.662 365.462 159.891 362.08 158.371C358.698 156.85 355.686 154.615 353.25 151.82C347.837 145.94 345.133 138.673 345.14 130.02C345.147 121.367 347.85 114.143 353.25 108.35C358.743 102.39 365.273 99.4133 372.84 99.42C380.407 99.4267 386.167 101.783 390.12 106.49" fill="#fff"/>
<path d="M33.93 4.85223e-07C24.9312 4.85223e-07 16.301 3.57476 9.93787 9.93787C3.57476 16.301 0 24.9312 0 33.93L0 98.93C0 98.93 51.78 64.08 57.92 57.93C62.6678 53.1853 65.9016 47.1391 67.2124 40.5562C68.5233 33.9733 67.8521 27.1495 65.284 20.948C62.7159 14.7466 58.3661 9.44622 52.785 5.71739C47.2038 1.98857 40.6422 -0.00113441 33.93 4.85223e-07" fill="#EB008C"/>
<path d="M67.87 126.72C67.87 133.433 65.8792 139.995 62.1494 145.577C58.4196 151.159 53.1183 155.509 46.916 158.077C40.7137 160.646 33.889 161.318 27.305 160.007C20.721 158.697 14.6735 155.463 9.92727 150.716C5.18107 145.968 1.94939 139.92 0.640934 133.335C-0.667519 126.751 0.00603366 119.926 2.57641 113.725C5.14678 107.523 9.49851 102.223 15.0812 98.4951C20.6639 94.7669 27.2269 92.778 33.94 92.78C38.3966 92.78 42.8095 93.658 46.9268 95.3637C51.044 97.0695 54.7849 99.5697 57.9357 102.721C61.0865 105.873 63.5856 109.615 65.2901 113.732C66.9947 117.85 67.8713 122.263 67.87 126.72" fill="#fff"/>
</g>
<defs>
<clipPath id="clip0_1_2">
<rect width="407.5" height="160.65" fill="white"/>
</clipPath>
</defs>
</svg>
