<?xml version="1.0" encoding="UTF-8" standalone="no"?>
<!-- Created with Inkscape (http://www.inkscape.org/) -->

<svg
   width="7000"
   height="2500"
   viewBox="0 0 7000 2500"
   version="1.1"
   id="svg5"
   xml:space="preserve"
   inkscape:version="1.2.1 (1:1.2.1+202210291243+9c6d41e410)"
   sodipodi:docname="plan_floor1.svg"
   xmlns:inkscape="http://www.inkscape.org/namespaces/inkscape"
   xmlns:sodipodi="http://sodipodi.sourceforge.net/DTD/sodipodi-0.dtd"
   xmlns="http://www.w3.org/2000/svg"
   xmlns:svg="http://www.w3.org/2000/svg"><sodipodi:namedview
     id="namedview7"
     pagecolor="#ffffff"
     bordercolor="#000000"
     borderopacity="0.25"
     inkscape:showpageshadow="2"
     inkscape:pageopacity="0.0"
     inkscape:pagecheckerboard="0"
     inkscape:deskcolor="#d1d1d1"
     inkscape:document-units="mm"
     showgrid="false"
     inkscape:zoom="0.12409585"
     inkscape:cx="3509.3841"
     inkscape:cy="1559.2786"
     inkscape:window-width="1846"
     inkscape:window-height="1016"
     inkscape:window-x="0"
     inkscape:window-y="0"
     inkscape:window-maximized="1"
     inkscape:current-layer="layer1" /><defs
     id="defs2" /><g
     inkscape:label="floor1"
     inkscape:groupmode="layer"
     id="layer1"
     style="display:inline;opacity:1"><g
       id="g21888"
       inkscape:label="polygons"><rect
         style="font-variation-settings:normal;opacity:1;fill:#808080;fill-opacity:1;fill-rule:evenodd;stroke:none;stroke-width:0.999999;stroke-linecap:butt;stroke-linejoin:miter;stroke-miterlimit:4;stroke-dasharray:none;stroke-dashoffset:0;stroke-opacity:1;stop-color:#000000;stop-opacity:1"
         id="rect17206"
         width="939.69922"
         height="725.05664"
         x="532.27539"
         y="60"
         inkscape:label="area8"><title
           id="title21929">Комната №6</title></rect><rect
         style="font-variation-settings:normal;opacity:1;vector-effect:none;fill:#808080;fill-opacity:1;fill-rule:evenodd;stroke:none;stroke-width:0.999999;stroke-linecap:butt;stroke-linejoin:miter;stroke-miterlimit:4;stroke-dasharray:none;stroke-dashoffset:0;stroke-opacity:1;-inkscape-stroke:none;stop-color:#000000;stop-opacity:1"
         id="rect17934"
         width="451.97461"
         height="725.05664"
         x="60"
         y="60"
         inkscape:label="area8"><title
           id="title21927">Комната №5</title></rect><rect
         style="font-variation-settings:normal;opacity:1;vector-effect:none;fill:#808080;fill-opacity:1;fill-rule:evenodd;stroke:none;stroke-width:0.999999;stroke-linecap:butt;stroke-linejoin:miter;stroke-miterlimit:4;stroke-dasharray:none;stroke-dashoffset:0;stroke-opacity:1;-inkscape-stroke:none;stop-color:#000000;stop-opacity:1"
         id="rect19528"
         width="451.97461"
         height="718.08795"
         x="60"
         y="1185.0566"
         inkscape:label="area7"><title
           id="title21925">Комната №4</title></rect><rect
         style="font-variation-settings:normal;opacity:1;fill:#808080;fill-opacity:1;fill-rule:evenodd;stroke:none;stroke-width:0.999999;stroke-linecap:butt;stroke-linejoin:miter;stroke-miterlimit:4;stroke-dasharray:none;stroke-dashoffset:0;stroke-opacity:1;stop-color:#000000;stop-opacity:1"
         id="rect19530"
         width="939.69922"
         height="718.08795"
         x="532.27539"
         y="1185.0566"
         inkscape:label="area6"><title
           id="title21923">Комната №3</title></rect><path
         id="rect19532"
         style="font-variation-settings:normal;opacity:1;fill:#808080;fill-opacity:1;fill-rule:evenodd;stroke:none;stroke-width:0.999999;stroke-linecap:butt;stroke-linejoin:miter;stroke-miterlimit:4;stroke-dasharray:none;stroke-dashoffset:0;stroke-opacity:1;stop-color:#000000;stop-opacity:1"
         d="m 2540,60 v 993.0567 h 305.7256 l 222.8046,0 h 49.464 2309.5371 V 60 h -1825.9002 -531.7854 -222.5 -164.9229 z"
         inkscape:label="area5"
         sodipodi:nodetypes="cccccccccccc"><title
           id="title21921">Комната №2</title></path><path
         id="rect19556"
         style="font-variation-settings:normal;opacity:1;vector-effect:none;fill:#808080;fill-opacity:1;fill-rule:evenodd;stroke:none;stroke-width:0.999999;stroke-linecap:butt;stroke-linejoin:miter;stroke-miterlimit:4;stroke-dasharray:none;stroke-dashoffset:0;stroke-opacity:1;-inkscape-stroke:none;stop-color:#000000;stop-opacity:1"
         d="M 5447.5313,60 V 753.05469 H 6340 V 60 Z m 0,713.05469 V 1053.0567 H 6340 V 773.05469 Z"
         inkscape:label="area4"
         sodipodi:nodetypes="cccccccccc"><title
           id="title21919">Комната №1</title></path><rect
         style="font-variation-settings:normal;opacity:1;vector-effect:none;fill:#808080;fill-opacity:1;fill-rule:evenodd;stroke:none;stroke-width:0.999999;stroke-linecap:butt;stroke-linejoin:miter;stroke-miterlimit:4;stroke-dasharray:none;stroke-dashoffset:0;stroke-opacity:1;-inkscape-stroke:none;stop-color:#000000;stop-opacity:1"
         id="rect20284"
         width="540"
         height="693.05469"
         x="6400"
         y="60"
         inkscape:label="area3"><title
           id="title21917">Вахта</title></rect><path
         id="rect20286"
         style="font-variation-settings:normal;opacity:1;vector-effect:none;fill:#808080;fill-opacity:1;fill-rule:evenodd;stroke:none;stroke-width:0.999999;stroke-linecap:butt;stroke-linejoin:miter;stroke-miterlimit:4;stroke-dasharray:none;stroke-dashoffset:0;stroke-opacity:1;-inkscape-stroke:none;stop-color:#000000;stop-opacity:1"
         d="m 6400,773.01651 v 346.25419 334.0399 h 289.709 v -337.5371 l 250.291,0 0,-342.71881 z M 2540,1073.0567 V 2440 H 6340 V 1073.0567 Z m 4169.709,62.7168 v 317.5371 H 6940 v -317.5371 z"
         inkscape:label="area3"
         sodipodi:nodetypes="cccccccccccccccccc"><title
           id="title21915">Холл</title></path><path
         id="rect20389"
         style="font-variation-settings:normal;opacity:1;vector-effect:none;fill:#808080;fill-opacity:1;fill-rule:evenodd;stroke:none;stroke-width:0.999999;stroke-linecap:butt;stroke-linejoin:miter;stroke-miterlimit:4;stroke-dasharray:none;stroke-dashoffset:0;stroke-opacity:1;-inkscape-stroke:none;stop-color:#000000;stop-opacity:1"
         d="m 1492.2754,60 v 171.5201 322.95842 249.30327 l -960,1.27485 v 360.00006 l 960,0.6511 v 253.7707 241.833 241.8331 H 1816.693 2480 V 1319.3452 1107.7313 870.26485 565.73165 60 Z M 60,805.05664 v 360.00006 l 451.97461,0 0,-360.00006 z"
         inkscape:label="area1"
         sodipodi:nodetypes="ccccccccccccccccccccccc"><title
           id="title21911">Коридор</title></path><rect
         style="font-variation-settings:normal;opacity:1;vector-effect:none;fill:#808080;fill-opacity:1;fill-rule:evenodd;stroke:none;stroke-width:0.999999;stroke-linecap:butt;stroke-linejoin:miter;stroke-miterlimit:4;stroke-dasharray:none;stroke-dashoffset:0;stroke-opacity:1;-inkscape-stroke:none;stop-color:#000000;stop-opacity:1"
         id="rect7397"
         width="540"
         height="966.68939"
         x="6400"
         y="1473.3105"
         inkscape:label="area2"><title
           id="title10477">Гардероб</title></rect></g><g
       id="g21876"
       style="display:inline"
       inkscape:label="plan"><path
         id="rect31285"
         style="display:inline;opacity:1;font-variation-settings:normal;vector-effect:none;fill:#333333;fill-opacity:1;fill-rule:evenodd;stroke:none;stroke-width:7.03273;stroke-linecap:butt;stroke-linejoin:miter;stroke-miterlimit:4;stroke-dasharray:none;stroke-dashoffset:0;stroke-opacity:1;-inkscape-stroke:none;stop-color:#000000;stop-opacity:1"
         d="M -1.5691954,6.8332318 V 66.833232 1969.9778 H 58.430805 2478.4308 v 536.8554 h 60 4460 v -60 -1085.459 h -60 v 98.7696 h -230.291 v -59.4375 h -20 v 59.4375 h -75.5332 v 20 h 325.8242 v 260.6172 h -267.5 -5 -267.5 v -260.6172 h 94.1758 v -20 h -94.1758 v -119.3399 h -60 v 1106.0293 h -3800 v -739.7461 h -60 v 202.8907 h -987.7246 v -483.6661 h 240.7715 5 v -205 h -5 -240.7715 v -169.4218 h -20.3008 v 120 H 775.98159 v 20 h 694.42381 v 718.0879 H 530.7062 v -718.0879 h 125.27539 v -20 H 530.7062 v -120 h -20.30079 v 120 H 370.44643 v 20 h 139.95898 v 718.0879 H 58.430805 V 1191.8899 H 250.44643 v -20 H 58.430805 V 811.88987 H 250.44643 v -20 H 58.430805 V 66.833232 H 510.40541 V 791.88987 H 370.44643 v 20 h 139.95898 v 120 h 20.30079 v -120 h 125.27539 v -20 H 530.7062 V 66.833232 h 939.6992 V 791.88987 H 775.98159 v 20 h 694.42381 v 120 h 20.3008 V 766.31175 h 240.7715 5 v -205 h -5 -240.7715 V 66.833232 h 987.7246 V 1587.0871 h 60 v -507.1972 h 387.0352 v -20 H 2538.4308 V 66.833232 h 284.8457 v 239.152348 5 h 245 v -5 V 66.833232 H 5425.9621 V 859.88987 h 20 v -80.00195 h 596.9277 v -20 H 5445.9621 V 66.833232 h 892.4687 V 759.88792 h -175.541 v 20 h 175.541 v 280.00198 h -892.4687 v -80.00003 h -20 v 80.00003 H 3045.466 v 20 h 3292.9648 v 140.914 h 60 V 66.833232 h 540 V 759.88792 h -420 v 20 h 420 v 342.71878 h -250.291 v 20 138.0996 h 20 v -138.0996 h 230.291 v 98.7675 h 60 V 8.4347943 6.8332318 Z M 2828.2765,66.833232 h 35 V 305.98558 h -35 z m 40,0 h 35 V 305.98558 h -35 z m 40,0 h 35 V 305.98558 h -35 z m 40,0 h 35 V 305.98558 h -35 z m 40,0 h 35 V 305.98558 h -35 z m 40,0 h 35 V 305.98558 h -35 z M 1490.7062,566.31175 h 240.7715 v 35 h -240.7715 z m 0,40 h 240.7715 v 35 h -240.7715 z m 0,40 h 240.7715 v 35 h -240.7715 z m 0,40 h 240.7715 v 35 h -240.7715 z m 0,40 h 240.7715 v 35 h -240.7715 z m 0,499.99995 h 240.7715 v 35 h -240.7715 z m 0,40 h 240.7715 v 35 h -240.7715 z m 0,40 h 240.7715 v 35 h -240.7715 z m 0,40 h 240.7715 v 35 h -240.7715 z m 0,40 h 240.7715 v 35 h -240.7715 z m 4907.7246,359.4493 h 267.5 v 35 h -267.5 z m 272.5,0 h 267.5 v 35 h -267.5 z m -272.5,40 h 267.5 v 35 h -267.5 z m 272.5,0 h 267.5 v 35 h -267.5 z m -272.5,40 h 267.5 v 35 h -267.5 z m 272.5,0 h 267.5 v 35 h -267.5 z m -272.5,40 h 267.5 v 35 h -267.5 z m 272.5,0 h 267.5 v 35 h -267.5 z m -272.5,40 h 267.5 v 35 h -267.5 z m 272.5,0 h 267.5 v 35 h -267.5 z m -272.5,40 h 267.5 v 35 h -267.5 z m 272.5,0 h 267.5 v 35 h -267.5 z m -272.5,40 h 267.5 v 35 h -267.5 z m 272.5,0 h 267.5 v 35 h -267.5 z m -272.5,40 h 267.5 v 35 h -267.5 z m 272.5,0 h 267.5 v 35 h -267.5 z m -272.5,40 h 267.5 v 35 h -267.5 z m 272.5,0 h 267.5 v 35 h -267.5 z m -272.5,40 h 267.5 v 35 h -267.5 z m 272.5,0 h 267.5 v 35 h -267.5 z m -272.5,40 h 540 v 301.0722 h -540 z"
         transform="translate(1.5691954,-6.8332318)" /><rect
         style="display:inline;opacity:1;font-variation-settings:normal;vector-effect:none;fill:#666666;fill-opacity:1;fill-rule:evenodd;stroke:none;stroke-width:0.999999;stroke-linecap:butt;stroke-linejoin:miter;stroke-miterlimit:4;stroke-dasharray:none;stroke-dashoffset:0;stroke-opacity:1;-inkscape-stroke:none;stop-color:#000000;stop-opacity:1"
         id="rect10506"
         width="120"
         height="20"
         x="252.01562"
         y="785.05664" /><rect
         style="font-variation-settings:normal;display:inline;opacity:1;vector-effect:none;fill:#666666;fill-opacity:1;fill-rule:evenodd;stroke:none;stroke-width:0.999999;stroke-linecap:butt;stroke-linejoin:miter;stroke-miterlimit:4;stroke-dasharray:none;stroke-dashoffset:0;stroke-opacity:1;-inkscape-stroke:none;stop-color:#000000;stop-opacity:1"
         id="rect11304"
         width="120"
         height="20"
         x="657.55078"
         y="785.05664" /><rect
         style="font-variation-settings:normal;display:inline;opacity:1;vector-effect:none;fill:#666666;fill-opacity:1;fill-rule:evenodd;stroke:none;stroke-width:0.999999;stroke-linecap:butt;stroke-linejoin:miter;stroke-miterlimit:4;stroke-dasharray:none;stroke-dashoffset:0;stroke-opacity:1;-inkscape-stroke:none;stop-color:#000000;stop-opacity:1"
         id="rect11306"
         width="120"
         height="20"
         x="252.01562"
         y="1165.0566" /><rect
         style="font-variation-settings:normal;display:inline;opacity:1;vector-effect:none;fill:#666666;fill-opacity:1;fill-rule:evenodd;stroke:none;stroke-width:0.999999;stroke-linecap:butt;stroke-linejoin:miter;stroke-miterlimit:4;stroke-dasharray:none;stroke-dashoffset:0;stroke-opacity:1;-inkscape-stroke:none;stop-color:#000000;stop-opacity:1"
         id="rect11308"
         width="120"
         height="20"
         x="657.55078"
         y="1165.0566" /><rect
         style="font-variation-settings:normal;display:inline;opacity:1;vector-effect:none;fill:#666666;fill-opacity:1;fill-rule:evenodd;stroke:none;stroke-width:0.999999;stroke-linecap:butt;stroke-linejoin:miter;stroke-miterlimit:4;stroke-dasharray:none;stroke-dashoffset:0;stroke-opacity:1;-inkscape-stroke:none;stop-color:#000000;stop-opacity:1"
         id="rect11310"
         width="120"
         height="20"
         x="2927.0352"
         y="1053.0566" /><rect
         style="font-variation-settings:normal;display:inline;opacity:1;vector-effect:none;fill:#666666;fill-opacity:1;fill-rule:evenodd;stroke:none;stroke-width:0.999999;stroke-linecap:butt;stroke-linejoin:miter;stroke-miterlimit:4;stroke-dasharray:none;stroke-dashoffset:0;stroke-opacity:1;-inkscape-stroke:none;stop-color:#000000;stop-opacity:1"
         id="rect11312"
         width="120"
         height="20"
         x="6044.459"
         y="753.05469" /><rect
         style="font-variation-settings:normal;display:inline;opacity:1;vector-effect:none;fill:#666666;fill-opacity:1;fill-rule:evenodd;stroke:none;stroke-width:0.999999;stroke-linecap:butt;stroke-linejoin:miter;stroke-miterlimit:4;stroke-dasharray:none;stroke-dashoffset:0;stroke-opacity:1;-inkscape-stroke:none;stop-color:#000000;stop-opacity:1"
         id="rect11314"
         width="120"
         height="20"
         x="6400"
         y="753.05469" /><rect
         style="font-variation-settings:normal;display:inline;opacity:1;vector-effect:none;fill:#666666;fill-opacity:1;fill-rule:evenodd;stroke:none;stroke-width:0.999999;stroke-linecap:butt;stroke-linejoin:miter;stroke-miterlimit:4;stroke-dasharray:none;stroke-dashoffset:0;stroke-opacity:1;-inkscape-stroke:none;stop-color:#000000;stop-opacity:1"
         id="rect11316"
         width="120"
         height="20"
         x="6494.1758"
         y="1453.3105" /></g><rect
       style="font-variation-settings:normal;opacity:1;vector-effect:none;fill:#666666;fill-opacity:1;fill-rule:evenodd;stroke:none;stroke-width:0.999999;stroke-linecap:butt;stroke-linejoin:miter;stroke-miterlimit:4;stroke-dasharray:none;stroke-dashoffset:0;stroke-opacity:1;-inkscape-stroke:none;stop-color:#000000;stop-opacity:1"
       id="rect11318"
       width="60"
       height="120"
       x="6940"
       y="1234.541" /><rect
       style="font-variation-settings:normal;opacity:1;vector-effect:none;fill:#666666;fill-opacity:1;fill-rule:evenodd;stroke:none;stroke-width:0.999999;stroke-linecap:butt;stroke-linejoin:miter;stroke-miterlimit:4;stroke-dasharray:none;stroke-dashoffset:0;stroke-opacity:1;-inkscape-stroke:none;stop-color:#000000;stop-opacity:1"
       id="rect11389"
       width="20.000011"
       height="120.00002"
       x="6689.709"
       y="1273.873" /><rect
       style="font-variation-settings:normal;opacity:1;vector-effect:none;fill:#666666;fill-opacity:1;fill-rule:evenodd;stroke:none;stroke-width:0.999999;stroke-linecap:butt;stroke-linejoin:miter;stroke-miterlimit:4;stroke-dasharray:none;stroke-dashoffset:0;stroke-opacity:1;-inkscape-stroke:none;stop-color:#000000;stop-opacity:1"
       id="rect11391"
       width="60"
       height="120"
       x="6340"
       y="1213.9707" /><rect
       style="font-variation-settings:normal;opacity:1;vector-effect:none;fill:#666666;fill-opacity:1;fill-rule:evenodd;stroke:none;stroke-width:0.999999;stroke-linecap:butt;stroke-linejoin:miter;stroke-miterlimit:4;stroke-dasharray:none;stroke-dashoffset:0;stroke-opacity:1;-inkscape-stroke:none;stop-color:#000000;stop-opacity:1"
       id="rect11393"
       width="60"
       height="120"
       x="2480"
       y="1580.2539" /><rect
       style="font-variation-settings:normal;opacity:1;vector-effect:none;fill:#666666;fill-opacity:1;fill-rule:evenodd;stroke:none;stroke-width:0.999999;stroke-linecap:butt;stroke-linejoin:miter;stroke-miterlimit:4;stroke-dasharray:none;stroke-dashoffset:0;stroke-opacity:1;-inkscape-stroke:none;stop-color:#000000;stop-opacity:1"
       id="rect11395"
       width="20.000011"
       height="120.00002"
       x="5427.5312"
       y="853.05573" /><rect
       style="font-variation-settings:normal;opacity:1;vector-effect:none;fill:#666666;fill-opacity:1;fill-rule:evenodd;stroke:none;stroke-width:0.999999;stroke-linecap:butt;stroke-linejoin:miter;stroke-miterlimit:4;stroke-dasharray:none;stroke-dashoffset:0;stroke-opacity:1;-inkscape-stroke:none;stop-color:#000000;stop-opacity:1"
       id="rect11397"
       width="20.000011"
       height="120.00002"
       x="1472.125"
       y="925.05664" /><rect
       style="font-variation-settings:normal;opacity:1;vector-effect:none;fill:#666666;fill-opacity:1;fill-rule:evenodd;stroke:none;stroke-width:0.999999;stroke-linecap:butt;stroke-linejoin:miter;stroke-miterlimit:4;stroke-dasharray:none;stroke-dashoffset:0;stroke-opacity:1;-inkscape-stroke:none;stop-color:#000000;stop-opacity:1"
       id="rect11399"
       width="20.000011"
       height="120.00002"
       x="511.97461"
       y="925.05664" /></g></svg>
