<svg version="1.1" id="svg39814" xmlns:xlink="http://www.w3.org/1999/xlink" xmlns="http://www.w3.org/2000/svg" viewBox="0 0 28 28">
  <defs id="defs39811">
    <linearGradient id="linearGradient44177">
      <stop style="stop-color:#1de9b6;stop-opacity:1" offset="0" id="stop44173"/>
      <stop style="stop-color:#fff;stop-opacity:1" offset=".5" id="stop44204"/>
      <stop style="stop-color:#1de9b6;stop-opacity:1" offset="1" id="stop44175"/>
    </linearGradient>
    <linearGradient xlink:href="#linearGradient44177" id="linearGradient44179" x1="14" y1="28" x2="14" y2="0" gradientUnits="userSpaceOnUse"/>
  </defs>
  <g id="layer1">
    <path id="path40298" style="fill:url(#linearGradient44179);stroke-width:3.29744;fill-opacity:1" d="M14 0A14 14 0 0 0 0 14a14 14 0 0 0 14 14 14 14 0 0 0 14-14A14 14 0 0 0 14 0zm0 4.3809A9.4018 9.6182 0 0 1 23.4023 14 9.4018 9.6182 0 0 1 14 23.6191 9.4018 9.6182 0 0 1 4.5977 14 9.4018 9.6182 0 0 1 14 4.3809z"/>
  </g>
</svg>
