<?xml version="1.0" encoding="UTF-8" standalone="no"?><svg xmlns="http://www.w3.org/2000/svg" xmlns:xlink="http://www.w3.org/1999/xlink" id="svg39814" version="1.1" viewBox="0 0 28 28">
  <defs id="defs39811">
    <linearGradient id="linearGradient44177">
      <stop id="stop44173" offset="0" style="stop-color:#1de9b6;stop-opacity:1"/>
      <stop id="stop44204" offset=".5" style="stop-color:#fff;stop-opacity:1"/>
      <stop id="stop44175" offset="1" style="stop-color:#1de9b6;stop-opacity:1"/>
    </linearGradient>
    <linearGradient gradientUnits="userSpaceOnUse" id="linearGradient44179" x1="14" x2="14" xlink:href="#linearGradient44177" y1="28" y2="0"><stop id="stop44173" offset="0" style="stop-color:#1de9b6;stop-opacity:1"/><stop id="stop44204" offset=".5" style="stop-color:#fff;stop-opacity:1"/><stop id="stop44175" offset="1" style="stop-color:#1de9b6;stop-opacity:1"/></linearGradient>
  </defs>
  <g id="layer1">
    <path d="M14 0A14 14 0 0 0 0 14a14 14 0 0 0 14 14 14 14 0 0 0 14-14A14 14 0 0 0 14 0zm0 4.3809A9.4018 9.6182 0 0 1 23.4023 14 9.4018 9.6182 0 0 1 14 23.6191 9.4018 9.6182 0 0 1 4.5977 14 9.4018 9.6182 0 0 1 14 4.3809z" id="path40298" style="fill:url(#linearGradient44179);stroke-width:3.29744;fill-opacity:1"/>
  </g>
</svg>