<svg width="100%" height="100%" viewBox="0 0 210 52" fill="none" xmlns="http://www.w3.org/2000/svg">
          <path fill-rule="evenodd" clip-rule="evenodd" d="M25.3362 52C13.3926 52 7.42082 52 3.7104 48.3447C-3.24374e-07 44.6894 -5.85413e-07 38.8062 -1.10749e-06 27.0399L-1.19978e-06 24.9599C-1.72185e-06 13.1936 -1.98289e-06 7.3104 3.7104 3.6551C7.42081 5.69806e-06 13.3926 5.4409e-06 25.3362 4.92658e-06L25.3362 4.92658e-06L27.4476 4.83566e-06L27.4476 4.83566e-06C39.3912 4.32134e-06 45.363 4.06418e-06 49.0734 3.6551C52.7838 7.3104 52.7838 13.1936 52.7838 24.9599L52.7838 27.0399C52.7838 38.8062 52.7838 44.6894 49.0734 48.3447C45.363 52 39.3912 52 27.4476 52L25.3362 52Z" fill="#2B71F6"></path>
          <path d="M30.5228 32.0455C29.1007 31.6956 28.1035 30.4423 28.1035 29.0049L28.1035 12.0707C28.1035 10.4381 29.6695 9.2407 31.2848 9.63822L41.5141 12.1556C42.9362 12.5056 43.9334 13.7588 43.9334 15.1962L43.9334 32.1304C43.9334 33.7631 42.3674 34.9604 40.7521 34.5629L30.5228 32.0455Z" fill="white"></path>
          <path d="M11.2696 39.8434C9.8475 39.4934 8.85034 38.2402 8.85034 36.8028L8.85034 19.8686C8.85034 18.236 10.4163 17.0386 12.0316 17.4361L22.2609 19.9535C23.683 20.3035 24.6802 21.5567 24.6802 22.9941L24.6802 39.9283C24.6802 41.5609 23.1142 42.7583 21.4989 42.3608L11.2696 39.8434Z" fill="white"></path>
          <path d="M20.8964 35.9445C19.4742 35.5945 18.4771 34.3413 18.4771 32.9039L18.4771 15.9697C18.4771 14.337 20.043 13.1397 21.6583 13.5372L31.8876 16.0546C33.3098 16.4045 34.3069 17.6578 34.3069 19.0952L34.3069 36.0294C34.3069 37.662 32.7409 38.8594 31.1256 38.4619L20.8964 35.9445Z" fill="white"></path>
          <path d="M27.5913 37.5967V37.5967C27.1437 37.4844 26.8244 37.0893 26.8085 36.6281L26.3639 23.7064C26.2351 21.9935 24.9437 20.6316 23.5949 20.2317C23.5207 20.2097 23.4417 20.2397 23.3974 20.3031V20.3031C23.3516 20.3688 23.3691 20.4604 23.4328 20.509C23.7663 20.7635 24.6808 21.5916 24.6808 23.019L24.6781 36.8694L27.5913 37.5967Z" fill="#2B71F6"></path>
          <path d="M37.22 33.6942V33.6942C36.7728 33.5839 36.4531 33.1901 36.4373 32.7297L35.9926 19.8089C35.8637 18.0961 34.5723 16.7341 33.2236 16.3343C33.1494 16.3123 33.0704 16.3422 33.0261 16.4056V16.4056C32.9802 16.4713 32.9978 16.5629 33.0615 16.6115C33.395 16.866 34.3095 17.6941 34.3095 19.1216L34.3068 32.9767L37.22 33.6942Z" fill="#2B71F6"></path>
          <path d="M82.4925 29.8736C86.4556 28.8697 89.0598 25.8579 89.0598 21.9165C89.0598 17.0456 85.1345 13.6248 79.624 13.6248H69.8108V39.8386H74.34V30.2083H77.5482L84.5684 39.8386H89.8902L82.4925 29.8736ZM79.624 17.7149C82.4548 17.7149 84.4174 19.4253 84.4174 21.9165C84.4174 24.4078 82.4548 26.1182 79.624 26.1182H74.34V17.7149H79.624Z" fill="black"></path>
          <path d="M100.084 40.2104C102.461 40.2104 104.65 38.9834 105.896 36.9384L106.764 39.8386H110.01V20.5036H105.67V31.6956C105.67 34.4471 103.82 36.3806 101.291 36.3806C98.8003 36.3806 97.0641 34.4471 97.0641 31.6956V20.5036H92.7236V32.179C92.7236 36.8268 95.894 40.2104 100.084 40.2104Z" fill="black"></path>
          <path d="M123.862 40.2104C128.882 40.2104 133.034 37.3846 133.034 32.6995C133.034 27.4568 128.693 25.9323 124.957 24.668C122.05 23.7013 119.522 22.8089 119.522 20.4664C119.522 18.4213 121.446 17.343 123.711 17.343C126.089 17.343 127.787 18.5701 128.731 20.6523L133.034 19.9458C131.675 15.8557 128.24 13.2529 123.56 13.2529C118.729 13.2529 114.879 16.0045 114.879 20.6895C114.879 25.9694 119.22 27.4196 122.956 28.6466C125.825 29.5762 128.391 30.4686 128.391 32.8483C128.391 34.9305 126.466 36.1203 123.9 36.1203C120.956 36.1203 119.371 34.7446 117.974 32.2533L113.596 32.997C114.879 37.4217 118.955 40.2104 123.862 40.2104Z" fill="black"></path>
          <path d="M144.841 36.1203C143.369 36.1203 142.652 35.4139 142.652 33.9637V24.2219H148.502V20.5036H142.652V14.9262H139.406L138.312 20.5036H135.104V24.2219H138.312V33.9637C138.312 37.7564 140.539 39.8386 144.841 39.8386H148.502L148.88 36.1203H144.841Z" fill="black"></path>
          <path d="M161.283 40.2104C167.435 40.2104 171.776 36.046 171.776 30.1711C171.776 24.2962 167.435 20.1317 161.283 20.1317C155.131 20.1317 150.791 24.2962 150.791 30.1711C150.791 36.046 155.131 40.2104 161.283 40.2104ZM161.283 36.3063C157.735 36.3063 155.32 33.815 155.32 30.1711C155.32 26.5272 157.735 24.0359 161.283 24.0359C164.831 24.0359 167.247 26.5272 167.247 30.1711C167.247 33.815 164.831 36.3063 161.283 36.3063Z" fill="black"></path>
          <path d="M179.89 39.8386V28.4235C179.89 25.9694 181.098 24.5937 183.74 24.5937H186.231L185.853 20.5036H185.023C182.721 20.5036 180.947 21.1357 179.626 23.2923L178.795 20.5036H175.549V39.8386H179.89Z" fill="black"></path>
          <path d="M207.588 29.948C207.588 24.3706 203.361 20.1317 197.398 20.1317C191.434 20.1317 187.207 24.3334 187.207 30.1711C187.207 36.0088 191.434 40.2104 197.398 40.2104C201.474 40.2104 205.324 38.3141 206.796 34.633L202.719 33.9637C201.776 35.3395 199.964 36.3063 197.662 36.3063C194.34 36.3063 192.151 34.2984 191.736 31.3238H207.513C207.551 30.9148 207.588 30.4686 207.588 29.948ZM197.398 23.85C200.115 23.85 202.153 25.5604 202.87 27.9773H192C192.718 25.4861 194.756 23.85 197.398 23.85Z" fill="black"></path>
        </svg>
